<svg width="31" height="450" viewBox="0 0 31 450" fill="none" xmlns="http://www.w3.org/2000/svg">
<path d="M15.2 449.624C13.3867 449.624 11.808 449.261 10.464 448.536C9.09867 447.811 8.04267 446.808 7.296 445.528C6.54933 444.227 6.176 442.744 6.176 441.08C6.176 438.925 6.69867 437.155 7.744 435.768C8.78933 434.36 10.24 433.432 12.096 432.984V436.12C11.0293 436.419 10.1867 437.005 9.568 437.88C8.94933 438.733 8.64 439.8 8.64 441.08C8.64 442.744 9.216 444.088 10.368 445.112C11.4987 446.136 13.1093 446.648 15.2 446.648C17.312 446.648 18.944 446.136 20.096 445.112C21.248 444.088 21.824 442.744 21.824 441.08C21.824 439.8 21.5253 438.733 20.928 437.88C20.3307 437.027 19.4773 436.44 18.368 436.12V432.984C20.16 433.453 21.6 434.392 22.688 435.8C23.7547 437.208 24.288 438.968 24.288 441.08C24.288 442.744 23.9147 444.227 23.168 445.528C22.4213 446.808 21.3653 447.811 20 448.536C18.6347 449.261 17.0347 449.624 15.2 449.624ZM24.288 420.17C24.288 421.813 23.9147 423.306 23.168 424.65C22.4213 425.973 21.3653 427.018 20 427.786C18.6133 428.533 17.0133 428.906 15.2 428.906C13.408 428.906 11.8293 428.522 10.464 427.754C9.07733 426.965 8.02133 425.898 7.296 424.554C6.54933 423.21 6.176 421.706 6.176 420.042C6.176 418.378 6.54933 416.874 7.296 415.53C8.02133 414.186 9.06667 413.13 10.432 412.362C11.7973 411.573 13.3867 411.178 15.2 411.178C17.0133 411.178 18.6133 411.584 20 412.394C21.3653 413.184 22.4213 414.261 23.168 415.626C23.9147 416.992 24.288 418.506 24.288 420.17ZM21.728 420.17C21.728 419.125 21.4827 418.144 20.992 417.226C20.5013 416.309 19.7653 415.573 18.784 415.018C17.8027 414.442 16.608 414.154 15.2 414.154C13.792 414.154 12.5973 414.432 11.616 414.986C10.6347 415.541 9.90933 416.266 9.44 417.162C8.94933 418.058 8.704 419.029 8.704 420.074C8.704 421.141 8.94933 422.122 9.44 423.018C9.90933 423.893 10.6347 424.597 11.616 425.13C12.5973 425.664 13.792 425.93 15.2 425.93C16.6293 425.93 17.8347 425.674 18.816 425.162C19.7973 424.629 20.5333 423.925 21.024 423.05C21.4933 422.176 21.728 421.216 21.728 420.17ZM6.144 397.526C6.144 395.392 6.79467 393.664 8.096 392.342C9.376 391.019 11.232 390.358 13.664 390.358H24V393.238H14.08C12.3307 393.238 10.9973 393.675 10.08 394.55C9.14133 395.424 8.672 396.619 8.672 398.134C8.672 399.67 9.152 400.896 10.112 401.814C11.072 402.71 12.4693 403.158 14.304 403.158H24V406.07H6.464V403.158H8.96C8.064 402.582 7.37067 401.803 6.88 400.822C6.38933 399.819 6.144 398.72 6.144 397.526ZM15.168 385.409C13.376 385.409 11.808 385.046 10.464 384.321C9.09867 383.596 8.04267 382.604 7.296 381.345C6.54933 380.065 6.176 378.636 6.176 377.057C6.176 375.692 6.496 374.422 7.136 373.249C7.75467 372.076 8.576 371.18 9.6 370.561H0.32V367.617H24V370.561H20.704C21.7493 371.137 22.6133 371.99 23.296 373.121C23.9573 374.252 24.288 375.574 24.288 377.089C24.288 378.646 23.904 380.065 23.136 381.345C22.368 382.604 21.2907 383.596 19.904 384.321C18.5173 385.046 16.9387 385.409 15.168 385.409ZM15.2 370.561C13.8773 370.561 12.7253 370.828 11.744 371.361C10.7627 371.894 10.016 372.62 9.504 373.537C8.97067 374.433 8.704 375.425 8.704 376.513C8.704 377.601 8.96 378.593 9.472 379.489C9.984 380.385 10.7307 381.1 11.712 381.633C12.6933 382.166 13.8453 382.433 15.168 382.433C16.512 382.433 17.6853 382.166 18.688 381.633C19.6693 381.1 20.4267 380.385 20.96 379.489C21.472 378.593 21.728 377.601 21.728 376.513C21.728 375.425 21.472 374.433 20.96 373.537C20.4267 372.62 19.6693 371.894 18.688 371.361C17.6853 370.828 16.5227 370.561 15.2 370.561ZM24.288 353.768C24.288 355.411 23.9147 356.904 23.168 358.248C22.4213 359.571 21.3653 360.616 20 361.384C18.6133 362.131 17.0133 362.504 15.2 362.504C13.408 362.504 11.8293 362.12 10.464 361.352C9.07733 360.563 8.02133 359.496 7.296 358.152C6.54933 356.808 6.176 355.304 6.176 353.64C6.176 351.976 6.54933 350.472 7.296 349.128C8.02133 347.784 9.06667 346.728 10.432 345.96C11.7973 345.171 13.3867 344.776 15.2 344.776C17.0133 344.776 18.6133 345.181 20 345.992C21.3653 346.781 22.4213 347.859 23.168 349.224C23.9147 350.589 24.288 352.104 24.288 353.768ZM21.728 353.768C21.728 352.723 21.4827 351.741 20.992 350.824C20.5013 349.907 19.7653 349.171 18.784 348.616C17.8027 348.04 16.608 347.752 15.2 347.752C13.792 347.752 12.5973 348.029 11.616 348.584C10.6347 349.139 9.90933 349.864 9.44 350.76C8.94933 351.656 8.704 352.627 8.704 353.672C8.704 354.739 8.94933 355.72 9.44 356.616C9.90933 357.491 10.6347 358.195 11.616 358.728C12.5973 359.261 13.792 359.528 15.2 359.528C16.6293 359.528 17.8347 359.272 18.816 358.76C19.7973 358.227 20.5333 357.523 21.024 356.648C21.4933 355.773 21.728 354.813 21.728 353.768ZM24.288 332.019C24.288 333.662 23.9147 335.155 23.168 336.499C22.4213 337.822 21.3653 338.867 20 339.635C18.6133 340.382 17.0133 340.755 15.2 340.755C13.408 340.755 11.8293 340.371 10.464 339.603C9.07733 338.814 8.02133 337.747 7.296 336.403C6.54933 335.059 6.176 333.555 6.176 331.891C6.176 330.227 6.54933 328.723 7.296 327.379C8.02133 326.035 9.06667 324.979 10.432 324.211C11.7973 323.422 13.3867 323.027 15.2 323.027C17.0133 323.027 18.6133 323.433 20 324.243C21.3653 325.033 22.4213 326.11 23.168 327.475C23.9147 328.841 24.288 330.355 24.288 332.019ZM21.728 332.019C21.728 330.974 21.4827 329.993 20.992 329.075C20.5013 328.158 19.7653 327.422 18.784 326.867C17.8027 326.291 16.608 326.003 15.2 326.003C13.792 326.003 12.5973 326.281 11.616 326.835C10.6347 327.39 9.90933 328.115 9.44 329.011C8.94933 329.907 8.704 330.878 8.704 331.923C8.704 332.99 8.94933 333.971 9.44 334.867C9.90933 335.742 10.6347 336.446 11.616 336.979C12.5973 337.513 13.792 337.779 15.2 337.779C16.6293 337.779 17.8347 337.523 18.816 337.011C19.7973 336.478 20.5333 335.774 21.024 334.899C21.4933 334.025 21.728 333.065 21.728 332.019ZM15.2 319.007C13.3867 319.007 11.808 318.644 10.464 317.919C9.09867 317.193 8.04267 316.191 7.296 314.911C6.54933 313.609 6.176 312.127 6.176 310.463C6.176 308.308 6.69867 306.537 7.744 305.151C8.78933 303.743 10.24 302.815 12.096 302.367V305.503C11.0293 305.801 10.1867 306.388 9.568 307.263C8.94933 308.116 8.64 309.183 8.64 310.463C8.64 312.127 9.216 313.471 10.368 314.495C11.4987 315.519 13.1093 316.031 15.2 316.031C17.312 316.031 18.944 315.519 20.096 314.495C21.248 313.471 21.824 312.127 21.824 310.463C21.824 309.183 21.5253 308.116 20.928 307.263C20.3307 306.409 19.4773 305.823 18.368 305.503V302.367C20.16 302.836 21.6 303.775 22.688 305.183C23.7547 306.591 24.288 308.351 24.288 310.463C24.288 312.127 23.9147 313.609 23.168 314.911C22.4213 316.191 21.3653 317.193 20 317.919C18.6347 318.644 17.0347 319.007 15.2 319.007ZM15.168 298.289C13.376 298.289 11.808 297.926 10.464 297.201C9.09867 296.476 8.04267 295.484 7.296 294.225C6.54933 292.945 6.176 291.526 6.176 289.969C6.176 288.433 6.50667 287.1 7.168 285.969C7.82933 284.838 8.66133 283.996 9.664 283.441H6.464V280.497H24V283.441H20.736C21.76 284.017 22.6133 284.881 23.296 286.033C23.9573 287.164 24.288 288.486 24.288 290.001C24.288 291.558 23.904 292.966 23.136 294.225C22.368 295.484 21.2907 296.476 19.904 297.201C18.5173 297.926 16.9387 298.289 15.168 298.289ZM15.2 283.441C13.8773 283.441 12.7253 283.708 11.744 284.241C10.7627 284.774 10.016 285.5 9.504 286.417C8.97067 287.313 8.704 288.305 8.704 289.393C8.704 290.481 8.96 291.473 9.472 292.369C9.984 293.265 10.7307 293.98 11.712 294.513C12.6933 295.046 13.8453 295.313 15.168 295.313C16.512 295.313 17.6853 295.046 18.688 294.513C19.6693 293.98 20.4267 293.265 20.96 292.369C21.472 291.473 21.728 290.481 21.728 289.393C21.728 288.305 21.472 287.313 20.96 286.417C20.4267 285.5 19.6693 284.774 18.688 284.241C17.6853 283.708 16.5227 283.441 15.2 283.441ZM9.312 271.384C8.30933 270.872 7.53067 270.147 6.976 269.208C6.42133 268.248 6.144 267.085 6.144 265.72H9.152V266.488C9.152 269.752 10.9227 271.384 14.464 271.384H24V274.296H6.464V271.384H9.312ZM14.56 245.078C15.1147 245.078 15.7013 245.11 16.32 245.174V259.19C18.048 259.084 19.4027 258.497 20.384 257.43C21.344 256.342 21.824 255.03 21.824 253.494C21.824 252.236 21.536 251.19 20.96 250.358C20.3627 249.505 19.5733 248.908 18.592 248.566V245.43C20.2773 245.9 21.6533 246.838 22.72 248.246C23.7653 249.654 24.288 251.404 24.288 253.494C24.288 255.158 23.9147 256.652 23.168 257.974C22.4213 259.276 21.3653 260.3 20 261.046C18.6133 261.793 17.0133 262.166 15.2 262.166C13.3867 262.166 11.7973 261.804 10.432 261.078C9.06667 260.353 8.02133 259.34 7.296 258.038C6.54933 256.716 6.176 255.201 6.176 253.494C6.176 251.83 6.53867 250.358 7.264 249.078C7.98933 247.798 8.992 246.817 10.272 246.134C11.5307 245.43 12.96 245.078 14.56 245.078ZM13.952 248.086C12.8427 248.086 11.8933 248.332 11.104 248.822C10.2933 249.313 9.68533 249.985 9.28 250.838C8.85333 251.67 8.64 252.598 8.64 253.622C8.64 255.094 9.10933 256.353 10.048 257.398C10.9867 258.422 12.288 259.009 13.952 259.158V248.086ZM3.488 223.955C3.488 221.587 3.936 219.528 4.832 217.779C5.728 216.029 6.98667 214.685 8.608 213.747C10.208 212.808 12.064 212.339 14.176 212.339C15.8613 212.339 17.4827 212.616 19.04 213.171C20.576 213.725 21.824 214.536 22.784 215.603C23.744 216.648 24.224 217.875 24.224 219.283C24.224 220.349 23.9573 221.171 23.424 221.747C22.8907 222.323 22.1653 222.653 21.248 222.739C22.1653 223.4 22.8907 224.243 23.424 225.267C23.9573 226.269 24.224 227.336 24.224 228.467C24.224 230.088 23.7333 231.368 22.752 232.307C21.7493 233.224 20.4053 233.683 18.72 233.683C17.12 233.683 15.6267 233.352 14.24 232.691C12.8533 232.008 11.744 231.069 10.912 229.875C10.0587 228.68 9.632 227.325 9.632 225.811C9.632 223.784 10.4 222.419 11.936 221.715L9.952 221.363V218.835L19.2 220.435C19.6053 220.499 19.9787 220.531 20.32 220.531C21.6 220.531 22.24 219.965 22.24 218.835C22.24 217.981 21.8347 217.245 21.024 216.627C20.2133 215.987 19.2 215.507 17.984 215.187C16.7467 214.867 15.5307 214.707 14.336 214.707C11.5413 214.707 9.376 215.549 7.84 217.235C6.304 218.899 5.536 221.256 5.536 224.307C5.536 226.845 6.15467 229.139 7.392 231.187C8.608 233.213 10.2827 234.803 12.416 235.955C14.5493 237.107 16.9067 237.683 19.488 237.683C22.304 237.704 24.4693 236.861 25.984 235.155C27.52 233.448 28.288 231.08 28.288 228.051C28.288 226.045 27.9253 224.275 27.2 222.739L29.184 222.355C29.9733 224.253 30.368 226.344 30.368 228.627C30.368 230.909 29.9307 232.925 29.056 234.675C28.2027 236.403 26.9653 237.747 25.344 238.707C23.744 239.645 21.8773 240.115 19.744 240.115C16.736 240.115 13.9947 239.421 11.52 238.035C9.024 236.648 7.06133 234.728 5.632 232.275C4.20267 229.8 3.488 227.027 3.488 223.955ZM21.952 227.603C21.952 226.643 21.6747 225.757 21.12 224.947C20.544 224.136 19.776 223.496 18.816 223.027C17.8347 222.557 16.768 222.323 15.616 222.323C14.5067 222.323 13.6107 222.632 12.928 223.251C12.224 223.848 11.872 224.701 11.872 225.811C11.872 226.835 12.1813 227.741 12.8 228.531C13.3973 229.299 14.1973 229.896 15.2 230.323C16.1813 230.749 17.2053 230.963 18.272 230.963C19.4027 230.963 20.2987 230.675 20.96 230.099C21.6213 229.523 21.952 228.691 21.952 227.603ZM24.288 198.62C24.288 200.263 23.9147 201.756 23.168 203.1C22.4213 204.423 21.3653 205.468 20 206.236C18.6133 206.983 17.0133 207.356 15.2 207.356C13.408 207.356 11.8293 206.972 10.464 206.204C9.07733 205.415 8.02133 204.348 7.296 203.004C6.54933 201.66 6.176 200.156 6.176 198.492C6.176 196.828 6.54933 195.324 7.296 193.98C8.02133 192.636 9.06667 191.58 10.432 190.812C11.7973 190.023 13.3867 189.628 15.2 189.628C17.0133 189.628 18.6133 190.034 20 190.844C21.3653 191.634 22.4213 192.711 23.168 194.076C23.9147 195.442 24.288 196.956 24.288 198.62ZM21.728 198.62C21.728 197.575 21.4827 196.594 20.992 195.676C20.5013 194.759 19.7653 194.023 18.784 193.468C17.8027 192.892 16.608 192.604 15.2 192.604C13.792 192.604 12.5973 192.882 11.616 193.436C10.6347 193.991 9.90933 194.716 9.44 195.612C8.94933 196.508 8.704 197.479 8.704 198.524C8.704 199.591 8.94933 200.572 9.44 201.468C9.90933 202.343 10.6347 203.047 11.616 203.58C12.5973 204.114 13.792 204.38 15.2 204.38C16.6293 204.38 17.8347 204.124 18.816 203.612C19.7973 203.079 20.5333 202.375 21.024 201.5C21.4933 200.626 21.728 199.666 21.728 198.62ZM6.464 168.968H24V171.88H21.408C22.304 172.434 23.008 173.213 23.52 174.216C24.0107 175.197 24.256 176.285 24.256 177.48C24.256 178.845 23.9787 180.072 23.424 181.16C22.848 182.248 21.9947 183.112 20.864 183.752C19.7333 184.37 18.3573 184.68 16.736 184.68H6.464V181.8H16.352C18.08 181.8 19.4133 181.362 20.352 180.488C21.2693 179.613 21.728 178.418 21.728 176.904C21.728 175.346 21.248 174.12 20.288 173.224C19.328 172.328 17.9307 171.88 16.096 171.88H6.464V168.968ZM8.864 159.219H19.2C20.0533 159.219 20.6613 159.038 21.024 158.675C21.3653 158.312 21.536 157.683 21.536 156.787V154.643H24V157.267C24 158.888 23.6267 160.104 22.88 160.915C22.1333 161.726 20.9067 162.131 19.2 162.131H8.864L8.864 164.403H6.464L6.464 162.131H2.048V159.219H6.464V154.643H8.864V159.219ZM0.32 146.923H24V149.835H0.32L0.32 146.923ZM24.288 133.032C24.288 134.674 23.9147 136.168 23.168 137.512C22.4213 138.834 21.3653 139.88 20 140.648C18.6133 141.394 17.0133 141.768 15.2 141.768C13.408 141.768 11.8293 141.384 10.464 140.616C9.07733 139.826 8.02133 138.76 7.296 137.416C6.54933 136.072 6.176 134.568 6.176 132.904C6.176 131.24 6.54933 129.736 7.296 128.392C8.02133 127.048 9.06667 125.992 10.432 125.224C11.7973 124.434 13.3867 124.04 15.2 124.04C17.0133 124.04 18.6133 124.445 20 125.256C21.3653 126.045 22.4213 127.122 23.168 128.488C23.9147 129.853 24.288 131.368 24.288 133.032ZM21.728 133.032C21.728 131.986 21.4827 131.005 20.992 130.088C20.5013 129.17 19.7653 128.434 18.784 127.88C17.8027 127.304 16.608 127.016 15.2 127.016C13.792 127.016 12.5973 127.293 11.616 127.848C10.6347 128.402 9.90933 129.128 9.44 130.024C8.94933 130.92 8.704 131.89 8.704 132.936C8.704 134.002 8.94933 134.984 9.44 135.88C9.90933 136.754 10.6347 137.458 11.616 137.992C12.5973 138.525 13.792 138.792 15.2 138.792C16.6293 138.792 17.8347 138.536 18.816 138.024C19.7973 137.49 20.5333 136.786 21.024 135.912C21.4933 135.037 21.728 134.077 21.728 133.032ZM24.288 111.283C24.288 112.926 23.9147 114.419 23.168 115.763C22.4213 117.086 21.3653 118.131 20 118.899C18.6133 119.646 17.0133 120.019 15.2 120.019C13.408 120.019 11.8293 119.635 10.464 118.867C9.07733 118.078 8.02133 117.011 7.296 115.667C6.54933 114.323 6.176 112.819 6.176 111.155C6.176 109.491 6.54933 107.987 7.296 106.643C8.02133 105.299 9.06667 104.243 10.432 103.475C11.7973 102.686 13.3867 102.291 15.2 102.291C17.0133 102.291 18.6133 102.696 20 103.507C21.3653 104.296 22.4213 105.374 23.168 106.739C23.9147 108.104 24.288 109.619 24.288 111.283ZM21.728 111.283C21.728 110.238 21.4827 109.256 20.992 108.339C20.5013 107.422 19.7653 106.686 18.784 106.131C17.8027 105.555 16.608 105.267 15.2 105.267C13.792 105.267 12.5973 105.544 11.616 106.099C10.6347 106.654 9.90933 107.379 9.44 108.275C8.94933 109.171 8.704 110.142 8.704 111.187C8.704 112.254 8.94933 113.235 9.44 114.131C9.90933 115.006 10.6347 115.71 11.616 116.243C12.5973 116.776 13.792 117.043 15.2 117.043C16.6293 117.043 17.8347 116.787 18.816 116.275C19.7973 115.742 20.5333 115.038 21.024 114.163C21.4933 113.288 21.728 112.328 21.728 111.283ZM24 87.3902L16.256 94.2702H24V97.1822H0.32V94.2702H14.24L6.464 87.5182V83.4542L15.2 91.7102L24 83.4222V87.3902ZM24.192 78.5055C24.192 79.0602 24 79.5295 23.616 79.9135C23.232 80.2975 22.7627 80.4895 22.208 80.4895C21.6533 80.4895 21.184 80.2975 20.8 79.9135C20.416 79.5295 20.224 79.0602 20.224 78.5055C20.224 77.9722 20.416 77.5242 20.8 77.1615C21.184 76.7775 21.6533 76.5855 22.208 76.5855C22.7627 76.5855 23.232 76.7775 23.616 77.1615C24 77.5242 24.192 77.9722 24.192 78.5055ZM15.2 72.5227C13.3867 72.5227 11.808 72.1601 10.464 71.4347C9.09867 70.7094 8.04267 69.7067 7.296 68.4267C6.54933 67.1254 6.176 65.6427 6.176 63.9787C6.176 61.8241 6.69867 60.0534 7.744 58.6667C8.78933 57.2587 10.24 56.3307 12.096 55.8827V59.0187C11.0293 59.3174 10.1867 59.9041 9.568 60.7787C8.94933 61.6321 8.64 62.6987 8.64 63.9787C8.64 65.6427 9.216 66.9867 10.368 68.0107C11.4987 69.0347 13.1093 69.5467 15.2 69.5467C17.312 69.5467 18.944 69.0347 20.096 68.0107C21.248 66.9867 21.824 65.6427 21.824 63.9787C21.824 62.6987 21.5253 61.6321 20.928 60.7787C20.3307 59.9254 19.4773 59.3387 18.368 59.0187V55.8827C20.16 56.3521 21.6 57.2907 22.688 58.6987C23.7547 60.1067 24.288 61.8667 24.288 63.9787C24.288 65.6427 23.9147 67.1254 23.168 68.4267C22.4213 69.7067 21.3653 70.7094 20 71.4347C18.6347 72.1601 17.0347 72.5227 15.2 72.5227ZM24.288 43.0692C24.288 44.7119 23.9147 46.2052 23.168 47.5492C22.4213 48.8719 21.3653 49.9172 20 50.6852C18.6133 51.4319 17.0133 51.8052 15.2 51.8052C13.408 51.8052 11.8293 51.4212 10.464 50.6532C9.07733 49.8639 8.02133 48.7972 7.296 47.4532C6.54933 46.1092 6.176 44.6052 6.176 42.9412C6.176 41.2772 6.54933 39.7732 7.296 38.4292C8.02133 37.0852 9.06667 36.0292 10.432 35.2612C11.7973 34.4719 13.3867 34.0772 15.2 34.0772C17.0133 34.0772 18.6133 34.4826 20 35.2932C21.3653 36.0826 22.4213 37.1599 23.168 38.5252C23.9147 39.8906 24.288 41.4052 24.288 43.0692ZM21.728 43.0692C21.728 42.0239 21.4827 41.0426 20.992 40.1252C20.5013 39.2079 19.7653 38.4719 18.784 37.9172C17.8027 37.3412 16.608 37.0532 15.2 37.0532C13.792 37.0532 12.5973 37.3306 11.616 37.8852C10.6347 38.4399 9.90933 39.1652 9.44 40.0612C8.94933 40.9572 8.704 41.9279 8.704 42.9732C8.704 44.0399 8.94933 45.0212 9.44 45.9172C9.90933 46.7919 10.6347 47.4959 11.616 48.0292C12.5973 48.5626 13.792 48.8292 15.2 48.8292C16.6293 48.8292 17.8347 48.5732 18.816 48.0612C19.7973 47.5279 20.5333 46.8239 21.024 45.9492C21.4933 45.0746 21.728 44.1146 21.728 43.0692ZM6.144 7.88049C6.144 6.51516 6.432 5.29916 7.008 4.23249C7.56267 3.16583 8.40533 2.32316 9.536 1.70449C10.6667 1.08583 12.0427 0.776493 13.664 0.776493H24L24 3.65649H14.08C12.3307 3.65649 10.9973 4.09383 10.08 4.96849C9.14133 5.82183 8.672 6.98449 8.672 8.45649C8.672 9.97116 9.16267 11.1765 10.144 12.0725C11.104 12.9685 12.5013 13.4165 14.336 13.4165H24V16.2965H14.08C12.3307 16.2965 10.9973 16.7338 10.08 17.6085C9.14133 18.4618 8.672 19.6245 8.672 21.0965C8.672 22.6112 9.16267 23.8165 10.144 24.7125C11.104 25.6085 12.5013 26.0565 14.336 26.0565H24V28.9685H6.464V26.0565H8.992C8.07467 25.4805 7.37067 24.7125 6.88 23.7525C6.38933 22.7712 6.144 21.6938 6.144 20.5205C6.144 19.0485 6.47467 17.7472 7.136 16.6165C7.79733 15.4858 8.768 14.6432 10.048 14.0885C8.81067 13.5978 7.85067 12.7872 7.168 11.6565C6.48533 10.5258 6.144 9.26716 6.144 7.88049Z" fill="white"/>
</svg>
