<svg width="34" height="324" viewBox="0 0 34 324" fill="none" xmlns="http://www.w3.org/2000/svg">
<path d="M16.2 323.624C14.3867 323.624 12.808 323.261 11.464 322.536C10.0987 321.811 9.04267 320.808 8.296 319.528C7.54933 318.227 7.176 316.744 7.176 315.08C7.176 312.925 7.69867 311.155 8.744 309.768C9.78933 308.36 11.24 307.432 13.096 306.984V310.12C12.0293 310.419 11.1867 311.005 10.568 311.88C9.94933 312.733 9.64 313.8 9.64 315.08C9.64 316.744 10.216 318.088 11.368 319.112C12.4987 320.136 14.1093 320.648 16.2 320.648C18.312 320.648 19.944 320.136 21.096 319.112C22.248 318.088 22.824 316.744 22.824 315.08C22.824 313.8 22.5253 312.733 21.928 311.88C21.3307 311.027 20.4773 310.44 19.368 310.12V306.984C21.16 307.453 22.6 308.392 23.688 309.8C24.7547 311.208 25.288 312.968 25.288 315.08C25.288 316.744 24.9147 318.227 24.168 319.528C23.4213 320.808 22.3653 321.811 21 322.536C19.6347 323.261 18.0347 323.624 16.2 323.624ZM25.288 294.17C25.288 295.813 24.9147 297.306 24.168 298.65C23.4213 299.973 22.3653 301.018 21 301.786C19.6133 302.533 18.0133 302.906 16.2 302.906C14.408 302.906 12.8293 302.522 11.464 301.754C10.0773 300.965 9.02133 299.898 8.296 298.554C7.54933 297.21 7.176 295.706 7.176 294.042C7.176 292.378 7.54933 290.874 8.296 289.53C9.02133 288.186 10.0667 287.13 11.432 286.362C12.7973 285.573 14.3867 285.178 16.2 285.178C18.0133 285.178 19.6133 285.584 21 286.394C22.3653 287.184 23.4213 288.261 24.168 289.626C24.9147 290.992 25.288 292.506 25.288 294.17ZM22.728 294.17C22.728 293.125 22.4827 292.144 21.992 291.226C21.5013 290.309 20.7653 289.573 19.784 289.018C18.8027 288.442 17.608 288.154 16.2 288.154C14.792 288.154 13.5973 288.432 12.616 288.986C11.6347 289.541 10.9093 290.266 10.44 291.162C9.94933 292.058 9.704 293.029 9.704 294.074C9.704 295.141 9.94933 296.122 10.44 297.018C10.9093 297.893 11.6347 298.597 12.616 299.13C13.5973 299.664 14.792 299.93 16.2 299.93C17.6293 299.93 18.8347 299.674 19.816 299.162C20.7973 298.629 21.5333 297.925 22.024 297.05C22.4933 296.176 22.728 295.216 22.728 294.17ZM10.312 277.158C9.30933 276.646 8.53067 275.92 7.976 274.982C7.42133 274.022 7.144 272.859 7.144 271.494H10.152V272.262C10.152 275.526 11.9227 277.158 15.464 277.158H25V280.07H7.464V277.158H10.312ZM10.312 263.94C9.30933 263.428 8.53067 262.703 7.976 261.764C7.42133 260.804 7.144 259.642 7.144 258.276H10.152V259.044C10.152 262.308 11.9227 263.94 15.464 263.94H25V266.852H7.464V263.94H10.312ZM15.56 237.635C16.1147 237.635 16.7013 237.667 17.32 237.731V251.747C19.048 251.64 20.4027 251.053 21.384 249.987C22.344 248.899 22.824 247.587 22.824 246.051C22.824 244.792 22.536 243.747 21.96 242.915C21.3627 242.061 20.5733 241.464 19.592 241.123V237.987C21.2773 238.456 22.6533 239.395 23.72 240.803C24.7653 242.211 25.288 243.96 25.288 246.051C25.288 247.715 24.9147 249.208 24.168 250.531C23.4213 251.832 22.3653 252.856 21 253.603C19.6133 254.349 18.0133 254.723 16.2 254.723C14.3867 254.723 12.7973 254.36 11.432 253.635C10.0667 252.909 9.02133 251.896 8.296 250.595C7.54933 249.272 7.176 247.757 7.176 246.051C7.176 244.387 7.53867 242.915 8.264 241.635C8.98933 240.355 9.992 239.373 11.272 238.691C12.5307 237.987 13.96 237.635 15.56 237.635ZM14.952 240.643C13.8427 240.643 12.8933 240.888 12.104 241.379C11.2933 241.869 10.6853 242.541 10.28 243.395C9.85333 244.227 9.64 245.155 9.64 246.179C9.64 247.651 10.1093 248.909 11.048 249.955C11.9867 250.979 13.288 251.565 14.952 251.715V240.643ZM25.288 224.863C25.288 226.506 24.9147 227.999 24.168 229.343C23.4213 230.666 22.3653 231.711 21 232.479C19.6133 233.226 18.0133 233.599 16.2 233.599C14.408 233.599 12.8293 233.215 11.464 232.447C10.0773 231.658 9.02133 230.591 8.296 229.247C7.54933 227.903 7.176 226.399 7.176 224.735C7.176 223.071 7.54933 221.567 8.296 220.223C9.02133 218.879 10.0667 217.823 11.432 217.055C12.7973 216.266 14.3867 215.871 16.2 215.871C18.0133 215.871 19.6133 216.276 21 217.087C22.3653 217.876 23.4213 218.954 24.168 220.319C24.9147 221.684 25.288 223.199 25.288 224.863ZM22.728 224.863C22.728 223.818 22.4827 222.836 21.992 221.919C21.5013 221.002 20.7653 220.266 19.784 219.711C18.8027 219.135 17.608 218.847 16.2 218.847C14.792 218.847 13.5973 219.124 12.616 219.679C11.6347 220.234 10.9093 220.959 10.44 221.855C9.94933 222.751 9.704 223.722 9.704 224.767C9.704 225.834 9.94933 226.815 10.44 227.711C10.9093 228.586 11.6347 229.29 12.616 229.823C13.5973 230.356 14.792 230.623 16.2 230.623C17.6293 230.623 18.8347 230.367 19.816 229.855C20.7973 229.322 21.5333 228.618 22.024 227.743C22.4933 226.868 22.728 225.908 22.728 224.863ZM4.488 194.762C4.488 192.394 4.936 190.336 5.832 188.586C6.728 186.837 7.98667 185.493 9.608 184.554C11.208 183.616 13.064 183.146 15.176 183.146C16.8613 183.146 18.4827 183.424 20.04 183.978C21.576 184.533 22.824 185.344 23.784 186.41C24.744 187.456 25.224 188.682 25.224 190.09C25.224 191.157 24.9573 191.978 24.424 192.554C23.8907 193.13 23.1653 193.461 22.248 193.546C23.1653 194.208 23.8907 195.05 24.424 196.074C24.9573 197.077 25.224 198.144 25.224 199.274C25.224 200.896 24.7333 202.176 23.752 203.114C22.7493 204.032 21.4053 204.49 19.72 204.49C18.12 204.49 16.6267 204.16 15.24 203.498C13.8533 202.816 12.744 201.877 11.912 200.682C11.0587 199.488 10.632 198.133 10.632 196.618C10.632 194.592 11.4 193.226 12.936 192.522L10.952 192.17V189.642L20.2 191.242C20.6053 191.306 20.9787 191.338 21.32 191.338C22.6 191.338 23.24 190.773 23.24 189.642C23.24 188.789 22.8347 188.053 22.024 187.434C21.2133 186.794 20.2 186.314 18.984 185.994C17.7467 185.674 16.5307 185.514 15.336 185.514C12.5413 185.514 10.376 186.357 8.84 188.042C7.304 189.706 6.536 192.064 6.536 195.114C6.536 197.653 7.15467 199.946 8.392 201.994C9.608 204.021 11.2827 205.61 13.416 206.762C15.5493 207.914 17.9067 208.49 20.488 208.49C23.304 208.512 25.4693 207.669 26.984 205.962C28.52 204.256 29.288 201.888 29.288 198.858C29.288 196.853 28.9253 195.082 28.2 193.546L30.184 193.162C30.9733 195.061 31.368 197.152 31.368 199.434C31.368 201.717 30.9307 203.733 30.056 205.482C29.2027 207.21 27.9653 208.554 26.344 209.514C24.744 210.453 22.8773 210.922 20.744 210.922C17.736 210.922 14.9947 210.229 12.52 208.842C10.024 207.456 8.06133 205.536 6.632 203.082C5.20267 200.608 4.488 197.834 4.488 194.762ZM22.952 198.41C22.952 197.45 22.6747 196.565 22.12 195.754C21.544 194.944 20.776 194.304 19.816 193.834C18.8347 193.365 17.768 193.13 16.616 193.13C15.5067 193.13 14.6107 193.44 13.928 194.058C13.224 194.656 12.872 195.509 12.872 196.618C12.872 197.642 13.1813 198.549 13.8 199.338C14.3973 200.106 15.1973 200.704 16.2 201.13C17.1813 201.557 18.2053 201.77 19.272 201.77C20.4027 201.77 21.2987 201.482 21.96 200.906C22.6213 200.33 22.952 199.498 22.952 198.41ZM7.176 169.844C7.176 168.329 7.50667 167.007 8.168 165.876C8.82933 164.724 9.66133 163.871 10.664 163.316H7.464V160.372H25.384C26.984 160.372 28.4027 160.713 29.64 161.396C30.8987 162.079 31.88 163.06 32.584 164.34C33.288 165.599 33.64 167.071 33.64 168.756C33.64 171.06 33.096 172.98 32.008 174.516C30.92 176.052 29.4373 176.959 27.56 177.236V174.356C28.6267 174.036 29.48 173.375 30.12 172.372C30.7813 171.369 31.112 170.164 31.112 168.756C31.112 167.156 30.6107 165.855 29.608 164.852C28.6053 163.828 27.1973 163.316 25.384 163.316H21.704C22.728 163.892 23.5813 164.745 24.264 165.876C24.9467 167.007 25.288 168.329 25.288 169.844C25.288 171.401 24.904 172.82 24.136 174.1C23.368 175.359 22.2907 176.351 20.904 177.076C19.5173 177.801 17.9387 178.164 16.168 178.164C14.376 178.164 12.808 177.801 11.464 177.076C10.0987 176.351 9.04267 175.359 8.296 174.1C7.54933 172.82 7.176 171.401 7.176 169.844ZM16.2 163.316C14.8773 163.316 13.7253 163.583 12.744 164.116C11.7627 164.649 11.016 165.375 10.504 166.292C9.97067 167.188 9.704 168.18 9.704 169.268C9.704 170.356 9.96 171.348 10.472 172.244C10.984 173.14 11.7307 173.855 12.712 174.388C13.6933 174.921 14.8453 175.188 16.168 175.188C17.512 175.188 18.6853 174.921 19.688 174.388C20.6693 173.855 21.4267 173.14 21.96 172.244C22.472 171.348 22.728 170.356 22.728 169.268C22.728 168.18 22.472 167.188 21.96 166.292C21.4267 165.375 20.6693 164.649 19.688 164.116C18.6853 163.583 17.5227 163.316 16.2 163.316ZM7.144 133.083C7.144 131.718 7.432 130.502 8.008 129.435C8.56267 128.368 9.40533 127.526 10.536 126.907C11.6667 126.288 13.0427 125.979 14.664 125.979H25V128.859H15.08C13.3307 128.859 11.9973 129.296 11.08 130.171C10.1413 131.024 9.672 132.187 9.672 133.659C9.672 135.174 10.1627 136.379 11.144 137.275C12.104 138.171 13.5013 138.619 15.336 138.619H25V141.499H15.08C13.3307 141.499 11.9973 141.936 11.08 142.811C10.1413 143.664 9.672 144.827 9.672 146.299C9.672 147.814 10.1627 149.019 11.144 149.915C12.104 150.811 13.5013 151.259 15.336 151.259H25V154.171H7.464V151.259H9.992C9.07467 150.683 8.37067 149.915 7.88 148.955C7.38933 147.974 7.144 146.896 7.144 145.723C7.144 144.251 7.47467 142.95 8.136 141.819C8.79733 140.688 9.768 139.846 11.048 139.291C9.81067 138.8 8.85067 137.99 8.168 136.859C7.48533 135.728 7.144 134.47 7.144 133.083ZM16.168 121.01C14.376 121.01 12.808 120.648 11.464 119.922C10.0987 119.197 9.04267 118.205 8.296 116.946C7.54933 115.666 7.176 114.248 7.176 112.69C7.176 111.154 7.50667 109.821 8.168 108.69C8.82933 107.56 9.66133 106.717 10.664 106.162H7.464V103.218H25V106.162H21.736C22.76 106.738 23.6133 107.602 24.296 108.754C24.9573 109.885 25.288 111.208 25.288 112.722C25.288 114.28 24.904 115.688 24.136 116.946C23.368 118.205 22.2907 119.197 20.904 119.922C19.5173 120.648 17.9387 121.01 16.168 121.01ZM16.2 106.162C14.8773 106.162 13.7253 106.429 12.744 106.962C11.7627 107.496 11.016 108.221 10.504 109.138C9.97067 110.034 9.704 111.026 9.704 112.114C9.704 113.202 9.96 114.194 10.472 115.09C10.984 115.986 11.7307 116.701 12.712 117.234C13.6933 117.768 14.8453 118.034 16.168 118.034C17.512 118.034 18.6853 117.768 19.688 117.234C20.6693 116.701 21.4267 115.986 21.96 115.09C22.472 114.194 22.728 113.202 22.728 112.114C22.728 111.026 22.472 110.034 21.96 109.138C21.4267 108.221 20.6693 107.496 19.688 106.962C18.6853 106.429 17.5227 106.162 16.2 106.162ZM4.616 95.5132C4.616 96.0679 4.424 96.5372 4.04 96.9212C3.656 97.3052 3.18667 97.4972 2.632 97.4972C2.07733 97.4972 1.608 97.3052 1.224 96.9212C0.839999 96.5372 0.647999 96.0679 0.647999 95.5132C0.647999 94.9799 0.839999 94.5319 1.224 94.1692C1.608 93.7852 2.07733 93.5932 2.632 93.5932C3.18667 93.5932 3.656 93.7852 4.04 94.1692C4.424 94.5319 4.616 94.9799 4.616 95.5132ZM7.464 94.1052H25V97.0172H7.464V94.1052ZM1.32 84.9502H25V87.8622H1.32L1.32 84.9502ZM25.192 77.7792C25.192 78.3339 25 78.8032 24.616 79.1872C24.232 79.5712 23.7627 79.7632 23.208 79.7632C22.6533 79.7632 22.184 79.5712 21.8 79.1872C21.416 78.8032 21.224 78.3339 21.224 77.7792C21.224 77.2459 21.416 76.7979 21.8 76.4352C22.184 76.0512 22.6533 75.8592 23.208 75.8592C23.7627 75.8592 24.232 76.0512 24.616 76.4352C25 76.7979 25.192 77.2459 25.192 77.7792ZM16.2 71.7965C14.3867 71.7965 12.808 71.4338 11.464 70.7085C10.0987 69.9832 9.04267 68.9805 8.296 67.7005C7.54933 66.3992 7.176 64.9165 7.176 63.2525C7.176 61.0978 7.69867 59.3272 8.744 57.9405C9.78933 56.5325 11.24 55.6045 13.096 55.1565V58.2925C12.0293 58.5912 11.1867 59.1778 10.568 60.0525C9.94933 60.9058 9.64 61.9725 9.64 63.2525C9.64 64.9165 10.216 66.2605 11.368 67.2845C12.4987 68.3085 14.1093 68.8205 16.2 68.8205C18.312 68.8205 19.944 68.3085 21.096 67.2845C22.248 66.2605 22.824 64.9165 22.824 63.2525C22.824 61.9725 22.5253 60.9058 21.928 60.0525C21.3307 59.1992 20.4773 58.6125 19.368 58.2925V55.1565C21.16 55.6258 22.6 56.5645 23.688 57.9725C24.7547 59.3805 25.288 61.1405 25.288 63.2525C25.288 64.9165 24.9147 66.3992 24.168 67.7005C23.4213 68.9805 22.3653 69.9832 21 70.7085C19.6347 71.4338 18.0347 71.7965 16.2 71.7965ZM25.288 42.343C25.288 43.9857 24.9147 45.479 24.168 46.823C23.4213 48.1457 22.3653 49.191 21 49.959C19.6133 50.7057 18.0133 51.079 16.2 51.079C14.408 51.079 12.8293 50.695 11.464 49.927C10.0773 49.1377 9.02133 48.071 8.296 46.727C7.54933 45.383 7.176 43.879 7.176 42.215C7.176 40.551 7.54933 39.047 8.296 37.703C9.02133 36.359 10.0667 35.303 11.432 34.535C12.7973 33.7457 14.3867 33.351 16.2 33.351C18.0133 33.351 19.6133 33.7563 21 34.567C22.3653 35.3563 23.4213 36.4337 24.168 37.799C24.9147 39.1643 25.288 40.679 25.288 42.343ZM22.728 42.343C22.728 41.2977 22.4827 40.3163 21.992 39.399C21.5013 38.4817 20.7653 37.7457 19.784 37.191C18.8027 36.615 17.608 36.327 16.2 36.327C14.792 36.327 13.5973 36.6043 12.616 37.159C11.6347 37.7137 10.9093 38.439 10.44 39.335C9.94933 40.231 9.704 41.2017 9.704 42.247C9.704 43.3137 9.94933 44.295 10.44 45.191C10.9093 46.0657 11.6347 46.7697 12.616 47.303C13.5973 47.8363 14.792 48.103 16.2 48.103C17.6293 48.103 18.8347 47.847 19.816 47.335C20.7973 46.8017 21.5333 46.0977 22.024 45.223C22.4933 44.3483 22.728 43.3883 22.728 42.343ZM7.144 7.15424C7.144 5.7889 7.432 4.5729 8.008 3.50624C8.56267 2.43957 9.40533 1.5969 10.536 0.978237C11.6667 0.35957 13.0427 0.0502357 14.664 0.0502357H25V2.93024H15.08C13.3307 2.93024 11.9973 3.36757 11.08 4.24224C10.1413 5.09557 9.672 6.25824 9.672 7.73024C9.672 9.2449 10.1627 10.4502 11.144 11.3462C12.104 12.2422 13.5013 12.6902 15.336 12.6902H25V15.5702H15.08C13.3307 15.5702 11.9973 16.0076 11.08 16.8822C10.1413 17.7356 9.672 18.8982 9.672 20.3702C9.672 21.8849 10.1627 23.0902 11.144 23.9862C12.104 24.8822 13.5013 25.3302 15.336 25.3302H25V28.2422H7.464V25.3302H9.992C9.07467 24.7542 8.37067 23.9862 7.88 23.0262C7.38933 22.0449 7.144 20.9676 7.144 19.7942C7.144 18.3222 7.47467 17.0209 8.136 15.8902C8.79733 14.7596 9.768 13.9169 11.048 13.3622C9.81067 12.8716 8.85067 12.0609 8.168 10.9302C7.48533 9.79957 7.144 8.5409 7.144 7.15424Z" fill="white"/>
</svg>
